<svg xmlns="http://www.w3.org/2000/svg" version="1.0" width="309.000000pt" height="298.000000pt" viewBox="-3 -3 315 304" preserveAspectRatio="xMidYMid meet"><g id="deeditor_bgCarrier" stroke-width="0">
  <rect id="dee_c_e" x="-3" y="-3" width="315" height="304" rx="38.4" fill="#ffffff" strokewidth="0"/>
</g>

<g transform="translate(0.000000,298.000000) scale(0.100000,-0.100000)" fill="#000000" stroke="none">
<path d="M1275 2890 c-16 -5 -48 -13 -70 -19 -22 -6 -59 -19 -82 -31 -23 -11 -80 -34 -127 -51 -56 -20 -98 -43 -127 -69 -24 -22 -48 -40 -53 -40 -22 0 -55 -54 -67 -107 -6 -32 -14 -53 -16 -47 -2 6 -16 9 -31 6 -30 -6 -127 -100 -138 -135 -4 -12 -8 -62 -10 -112 -1 -49 -6 -120 -9 -156 -6 -51 -4 -73 9 -97 16 -30 30 -36 83 -35 18 1 23 -24 7 -37 -8 -7 -14 -27 -14 -44 0 -17 -7 -40 -15 -50 -8 -11 -15 -40 -15 -65 1 -49 12 -63 76 -91 48 -21 67 -65 59 -136 -7 -59 -2 -65 19 -22 17 34 33 32 42 -4 6 -27 10 -14 20 74 13 118 40 208 90 309 19 37 40 93 49 125 8 32 26 78 39 103 13 25 35 66 48 91 31 58 99 95 173 94 91 -1 169 -15 225 -39 30 -13 70 -29 88 -36 19 -7 51 -28 71 -48 21 -20 50 -46 64 -58 15 -12 29 -35 33 -50 3 -15 12 -42 20 -60 8 -17 14 -37 14 -45 0 -15 -50 -48 -72 -48 -8 0 -33 -19 -56 -42 -38 -37 -42 -45 -36 -77 16 -101 70 -241 92 -241 8 0 16 -9 19 -20 3 -11 9 -20 14 -20 5 0 9 -11 9 -25 0 -21 -5 -25 -30 -25 -16 0 -33 -6 -37 -12 -4 -7 -17 -18 -28 -24 -11 -6 -24 -25 -30 -42 -5 -18 -15 -32 -22 -32 -7 0 -15 -12 -19 -27 -3 -16 -7 -33 -9 -40 -2 -6 2 -19 10 -30 13 -17 14 -17 38 5 21 20 25 21 37 7 26 -32 -11 -49 -132 -59 -26 -3 -56 -9 -67 -15 -11 -6 -42 -11 -68 -11 -41 0 -54 -5 -76 -28 -15 -15 -27 -36 -27 -45 0 -16 3 -16 38 1 71 35 165 55 208 43 22 -6 51 -11 67 -11 20 0 27 -5 27 -19 0 -19 -18 -31 -49 -31 -9 0 -38 -13 -64 -30 -46 -29 -60 -50 -33 -50 7 0 16 -8 18 -18 5 -19 33 -34 98 -54 39 -11 45 -17 47 -42 3 -47 -12 -64 -71 -76 -30 -6 -62 -20 -72 -31 -14 -15 -25 -18 -48 -13 -17 3 -37 11 -43 16 -9 7 -13 7 -13 -1 0 -6 -14 -11 -31 -11 -34 0 -119 53 -119 74 0 29 -30 25 -45 -4 -15 -29 -25 -34 -53 -31 -17 3 -42 -18 -42 -34 0 -7 15 -20 33 -28 18 -9 49 -29 69 -44 19 -15 60 -44 91 -63 49 -31 97 -86 88 -100 -11 -15 166 -70 224 -70 37 1 65 21 65 46 0 17 56 144 64 144 8 0 -16 -134 -32 -176 -20 -51 -19 -123 2 -136 23 -15 56 -7 73 17 10 14 27 38 38 53 23 31 44 102 45 153 0 35 -22 93 -41 104 -18 12 -9 54 14 66 49 26 80 82 89 158 13 111 43 255 58 283 13 23 12 28 -1 28 -5 0 -7 -6 -3 -12 4 -7 -2 -4 -14 6 -12 11 -22 27 -22 36 0 25 -46 63 -77 64 -33 1 -68 49 -78 106 -11 65 11 102 39 65 6 -9 16 -11 23 -7 10 6 10 12 -3 28 -8 10 -12 13 -8 5 4 -9 3 -12 -4 -7 -18 11 -2 36 23 36 13 0 25 4 27 10 2 5 30 11 63 12 l60 3 3 43 c2 24 -1 42 -7 42 -6 0 -8 7 -4 16 8 22 16 5 32 -68 10 -44 17 -58 30 -58 15 0 20 14 30 71 6 38 9 75 5 80 -9 15 3 52 25 75 24 27 61 102 61 126 0 10 4 18 9 18 13 0 43 68 36 80 -3 6 -15 10 -26 10 -11 0 -21 6 -23 13 -9 30 -20 217 -13 217 5 0 5 5 1 11 -3 6 -2 21 4 32 28 59 32 88 16 120 -9 18 -22 39 -29 47 -7 8 -15 32 -19 52 -12 67 -47 92 -193 141 -18 5 -35 18 -38 28 -7 22 -74 79 -92 79 -7 0 -16 6 -20 14 -4 7 -34 26 -67 41 -51 24 -63 26 -94 17 -38 -12 -147 -1 -207 20 -45 15 -76 18 -110 8z" fill="#000000"/>
<path d="M1085 1971 c-57 -23 -85 -40 -85 -52 0 -10 63 -5 82 7 5 3 31 0 58 -6 76 -18 65 -48 -28 -75 -49 -15 -82 -37 -82 -54 0 -17 63 -21 80 -6 15 14 20 12 54 -20 30 -28 45 -35 78 -35 101 0 140 34 169 148 18 75 12 79 -145 92 -71 6 -132 12 -135 14 -3 1 -24 -4 -46 -13z" fill="#000000"/>
<path d="M1432 1488 c-33 -33 6 -50 65 -27 27 10 27 11 9 25 -24 17 -58 18 -74 2z" fill="#000000"/>
<path d="M704 1021 c-11 -5 -28 -20 -37 -34 l-16 -25 56 -7 c63 -8 76 0 71 41 -2 23 -9 29 -28 31 -14 1 -34 -2 -46 -6z" fill="#000000"/>
<path d="M612 1007 c-8 -9 -6 -16 7 -24 22 -13 31 -8 31 19 0 21 -23 24 -38 5z" fill="#000000"/>
<path d="M717 931 c-17 -6 -16 -9 7 -34 28 -30 46 -35 46 -12 0 8 -4 15 -10 15 -5 0 -10 9 -10 20 0 21 -4 23 -33 11z" fill="#000000"/>
<path d="M897 424 c-3 -3 -55 -10 -115 -15 -140 -11 -209 -36 -258 -92 -60 -70 -62 -85 -8 -45 106 77 192 106 344 114 58 4 106 7 108 9 1 1 0 10 -4 19 -6 15 -54 23 -67 10z" fill="#000000"/>
<path d="M1249 396 c-20 -14 -48 -28 -63 -32 -42 -10 -22 -17 59 -21 74 -4 75 -4 75 21 0 19 -22 56 -33 56 -1 0 -19 -11 -38 -24z" fill="#000000"/>
<path d="M2060 397 c0 -26 36 -47 78 -47 52 0 54 15 5 30 -21 7 -42 16 -47 21 -15 14 -36 11 -36 -4z" fill="#000000"/>
<path d="M1723 323 c-28 -5 -29 -15 -4 -37 22 -20 42 -13 75 23 19 21 19 21 -15 20 -19 -1 -44 -4 -56 -6z" fill="#000000"/>
</g>
</svg>